<?xml version="1.0" encoding="UTF-8" standalone="no"?>
<!-- Created with Inkscape (http://www.inkscape.org/) -->

<svg
   xmlns:dc="http://purl.org/dc/elements/1.1/"
   xmlns:cc="http://creativecommons.org/ns#"
   xmlns:rdf="http://www.w3.org/1999/02/22-rdf-syntax-ns#"
   xmlns:svg="http://www.w3.org/2000/svg"
   xmlns="http://www.w3.org/2000/svg"
   xmlns:sodipodi="http://sodipodi.sourceforge.net/DTD/sodipodi-0.dtd"
   xmlns:inkscape="http://www.inkscape.org/namespaces/inkscape"
   width="41.128235mm"
   height="35.04237mm"
   viewBox="0 0 41.128235 35.04237"
   version="1.1"
   id="svg8"
   inkscape:version="0.92.5 (2060ec1f9f, 2020-04-08)"
   sodipodi:docname="UniTas_BM_H_Pos_Mono_RGB_2021_NoText.svg">
  <defs
     id="defs2" />
  <sodipodi:namedview
     id="base"
     pagecolor="#ffffff"
     bordercolor="#666666"
     borderopacity="1.0"
     inkscape:pageopacity="0.0"
     inkscape:pageshadow="2"
     inkscape:zoom="0.98994949"
     inkscape:cx="-98.143965"
     inkscape:cy="147.41711"
     inkscape:document-units="mm"
     inkscape:current-layer="Layer_1-2"
     showgrid="false"
     fit-margin-top="0"
     fit-margin-left="0"
     fit-margin-right="0"
     fit-margin-bottom="0"
     inkscape:window-width="1920"
     inkscape:window-height="1137"
     inkscape:window-x="1912"
     inkscape:window-y="-8"
     inkscape:window-maximized="1" />
  <metadata
     id="metadata5">
    <rdf:RDF>
      <cc:Work
         rdf:about="">
        <dc:format>image/svg+xml</dc:format>
        <dc:type
           rdf:resource="http://purl.org/dc/dcmitype/StillImage" />
        <dc:title></dc:title>
      </cc:Work>
    </rdf:RDF>
  </metadata>
  <g
     inkscape:label="Layer 1"
     inkscape:groupmode="layer"
     id="layer1"
     transform="translate(164.85421,-70.080004)">
    <g
       id="Layer_1-2"
       data-name="Layer 1"
       transform="matrix(0.26458333,0,0,0.26458333,-290.53594,70.077181)">
      <path
         inkscape:connector-curvature="0"
         d="m 522.94,16.39 c -0.74,0 -2.31,0.13 -3.32,0.15 a 4.81,4.81 0 0 1 -1.85,-0.39 0.42,0.42 0 0 0 -0.55,0.41 l -0.06,2.21 a 1.05,1.05 0 0 0 0.85,1 c 1.72,0.4 3.76,0.16 6.51,-2.7 0.49,-0.52 -1,-0.66 -1.58,-0.64"
         id="path3713" />
      <path
         inkscape:connector-curvature="0"
         d="m 630.42,30 a 0.15,0.15 0 0 0 0,-0.21 c -4.66,-4.95 -25.48,-2.46 -33.55,-1.55 -10,1.13 -18.21,2.24 -20.69,2.37 -2.71,0.14 -8.25,0.52 -11.44,-1 -3.63,-1.77 -4.66,-3.09 -4.94,-4.89 -0.82,-5.26 3.78,-5.39 5.23,-5.41 1.45,-0.02 3.5,0 3.35,2.05 -0.09,1.37 -1.27,2 -2.46,2.59 a 0.14,0.14 0 0 0 0,0.23 c 0.67,0.57 3.26,2.6 6.2,2.39 3.41,-0.25 5.73,-0.92 7.25,-6.55 a 0.12,0.12 0 0 1 0.16,-0.09 105.16,105.16 0 0 0 11.47,3.74 c 3.08,0.67 7.78,0.77 11,-1.11 3.22,-1.88 7.85,-4.69 13.09,-4.42 4.59,0.24 9.88,0.33 13,2.12 a 0.12,0.12 0 0 0 0.18,-0.15 C 627.64,18.01 623.44,6.39 609.48,9.62 v 0 c -3.51,1 -4,1.83 -6.8,2.34 a 36,36 0 0 1 -15.06,-0.72 0.15,0.15 0 0 1 0,-0.27 c 1.8,-1 11.12,-5.76 21.37,-4 a 0.14,0.14 0 0 0 0.13,-0.22 c -1,-1.33 -5.63,-7 -13.3,-6.73 C 587,0.34 585,2.29 579.47,5.23 c -5.11,2.74 -7.28,4.47 -16,4 -5.42,-0.29 -11.23,4 -12.37,7.35 -5.09,14.85 6,20.73 15.6,22.25 9,1.42 40.21,-5 47.6,-1.63 3.4,1.53 5.38,4.71 5.25,7.44 -0.07,1.28 -1.54,3.51 -5.79,4.44 a 56.84,56.84 0 0 1 -22,-0.57 v 0 c -0.18,-0.1 -7.64,-4.27 -13.37,-4.63 C 574,43.61 563.05,46 559.62,46 c -2.42,0.05 -7.06,0.32 -9.57,0.48 0.12,-11.21 -6,-20.39 -6.27,-20.89 a 1.24,1.24 0 0 0 -1.81,-0.37 c 0,0 -0.8,0.37 -2.27,1.1 1.62,-3.18 1.25,-7.29 -0.28,-8.9 a 0.25,0.25 0 0 1 0,-0.34 6.67,6.67 0 0 0 1.39,-3.49 c 0.08,-2.63 -0.45,-5.94 -6.63,-9.3 a 0.74,0.74 0 0 0 -1.06,0.38 c -0.52,1.27 -1.64,3.65 -2.71,3.73 -2.33,0.19 -9.34,1.72 -11.12,2.66 a 13.8,13.8 0 0 0 -5,4.09 6.19,6.19 0 0 1 -4.19,2.9 c -1.8,0.4 -2.53,0.05 -3.06,0.6 a 2.21,2.21 0 0 0 -0.68,2.2 33.41,33.41 0 0 0 2.42,5.35 9.61,9.61 0 0 0 2.49,2.94 h -2.36 c -0.66,0 -2.07,-0.14 -2.09,-0.14 a 0.72,0.72 0 0 0 -0.71,0.4 0.84,0.84 0 0 0 0.08,0.85 c 0.66,0.84 1.53,1.66 4.3,1.66 h 0.27 L 513,32 c -0.33,0.4 -0.67,0.83 -0.85,1.07 a 3.83,3.83 0 0 0 -0.66,4.42 6.37,6.37 0 0 0 2.19,2.71 c 1.61,-1.14 5.08,-2.67 6.52,-1.64 l -0.84,0.92 c -2.92,3.19 -6.76,7.19 -8.93,12.21 -2.65,-1 -9.18,-3.55 -12.22,-6.5 a 6,6 0 0 1 -1.17,-5.25 7.33,7.33 0 0 0 -0.31,-5.93 c -1.09,-2.44 -4.31,-4.84 -4.31,-4.84 0.42,-2.91 1,-6.78 1.21,-7.95 2.69,0.27 5.29,-0.42 6.15,-1.73 0.86,-1.31 1.13,-3.89 1.57,-4.49 0.44,-0.6 1.37,-0.37 1.91,-0.42 A 6.27,6.27 0 0 0 507.44,13 c 1.63,-1.49 2.8,-3.61 4.2,-3.81 a 7.22,7.22 0 0 0 4.09,-1.74 c 1.19,-1 3.72,-4.05 8.31,-3.95 1.27,0 2,-1.3 -0.4,-1.81 a 16.7,16.7 0 0 0 -8.71,0.65 c -2.61,1 -3.65,0.1 -4.76,-0.24 -1.72,-0.51 -3.4,-0.35 -5.91,0.61 -2.08,0.81 -5.85,1.33 -8,0.63 a 15.69,15.69 0 0 0 -9.69,-0.5 c -3.51,0.84 -5.92,2.77 -7.05,5.69 a 7.06,7.06 0 0 0 0,5.31 9.32,9.32 0 0 0 0.88,1.54 c -0.11,2.3 -0.43,9.89 -0.45,10.77 a 5.79,5.79 0 0 0 -0.74,2 3.41,3.41 0 0 0 -0.06,1.1 h -0.4 a 3.83,3.83 0 0 0 -2.34,1.14 l -0.25,0.25 -0.21,0.29 a 4.14,4.14 0 0 0 -0.36,0.6 l -0.28,0.62 a 5.1,5.1 0 0 0 -0.21,0.75 4.12,4.12 0 0 0 0,1.64 4.74,4.74 0 0 0 0.56,1.37 6,6 0 0 0 1.37,1.51 4.11,4.11 0 0 0 -0.57,0.72 4.61,4.61 0 0 0 -0.73,2.13 4.07,4.07 0 0 0 0.59,2.33 5.56,5.56 0 0 0 1.29,1.4 11.2,11.2 0 0 0 1.39,1 c -1.11,31.27 -1.2,32.54 2.05,33.54 a 1.17,1.17 0 0 0 0.37,0 c 3.78,0 4.82,-8.42 7,-23 0.32,-2.11 0.55,-4 0.81,-5.62 2.69,5 8.79,15.42 17.65,23.48 a 0.85,0.85 0 0 0 1.39,-0.47 c 1,-4.08 1.71,-5.49 2.1,-6.15 a 29.24,29.24 0 0 0 2.43,4.22 33.68,33.68 0 0 0 4.51,5 v 0 c -2.68,2.57 -9.37,8.46 -16.25,10.55 A 0.12,0.12 0 0 1 500.91,86.48 16.11,16.11 0 0 0 498,81.9 c -1.65,-1.55 -3.05,-3.17 -9.42,-1.84 a 22.61,22.61 0 0 0 -3.58,1.17 0.81,0.81 0 0 0 0.25,1.54 10.43,10.43 0 0 1 1.82,0.2 0.12,0.12 0 0 1 0.08,0.14 4.08,4.08 0 0 0 0.51,2.69 0.14,0.14 0 0 1 0,0.18 c -0.73,0.53 -5.13,4 -4.31,11.22 a 0.44,0.44 0 0 0 0.86,0.12 19.51,19.51 0 0 1 0.74,-2 c 0.36,0.65 2,3.29 4.54,3.67 a 0.13,0.13 0 0 1 0.1,0.15 12.13,12.13 0 0 0 2.65,8.79 0.61,0.61 0 0 0 1.07,-0.47 8,8 0 0 1 0,-1.55 0.13,0.13 0 0 1 0.2,-0.1 2.83,2.83 0 0 0 3.26,-0.19 17,17 0 0 0 4.73,-5.2 0.13,0.13 0 0 1 0.21,0 c 1.16,1.48 3,1.6 5.06,1.6 3.5,0 6.39,-1.85 6.39,-5.3 0,-0.08 0,-0.16 0,-0.25 7.85,0.79 12.65,-1.05 18.74,-4.92 5.59,-3.55 8.43,-6 8,-9.17 a 6.49,6.49 0 0 0 -1.8,-3.87 19.52,19.52 0 0 0 16.44,-9.61 c 0.08,-0.14 0.27,0 0.23,0.11 -0.61,2.7 -0.67,7.75 0.78,10.45 2.16,4 7.4,10.06 8.17,12.59 0.77,2.53 0.7,8.91 -2.13,12.42 -2.83,3.51 -3.52,4 -5.6,5.32 a 0.11,0.11 0 0 1 -0.14,0 c -0.54,-0.47 -4.27,-3.73 -8,-4.34 -3.73,-0.61 -15.73,-3.3 -16.33,9.67 a 0.61,0.61 0 0 0 1.09,0.46 8.6,8.6 0 0 1 2.58,-2.5 0.1,0.1 0 0 1 0.09,0 13.45,13.45 0 0 0 2.32,1 0.12,0.12 0 0 1 0.07,0.21 c -2,2.65 -3.85,6.76 -0.14,11.42 a 0.53,0.53 0 0 0 0.93,-0.4 12,12 0 0 1 0,-2.39 0.14,0.14 0 0 1 0.25,-0.06 c 1.36,2 4.53,2.68 7.49,1.39 a 0.12,0.12 0 0 1 0.17,0.1 c 0.12,0.78 0.9,4.16 6,7.95 a 0.65,0.65 0 0 0 1,-0.79 7.3,7.3 0 0 1 -0.58,-2.6 0.11,0.11 0 0 1 0.12,-0.11 6.84,6.84 0 0 0 6.09,-3.8 28,28 0 0 0 1.7,-5.25 0.12,0.12 0 0 1 0.06,-0.08 l 4.46,-2.89 a 0.13,0.13 0 0 1 0.19,0.07 c 0.34,0.83 0.71,1.75 1.47,2 a 0.13,0.13 0 0 1 0.1,0.16 25,25 0 0 1 -1,3.11 0.45,0.45 0 0 0 0.66,0.58 c 2.93,-2.14 8.8,-7.57 6.09,-13.43 9.53,-7.5 15.38,-16.73 16.33,-22.28 a 1.31,1.31 0 0 0 -1.22,-1.55 c -6.1,-0.19 -9.37,-1.83 -8.92,-7.36 a 0.13,0.13 0 0 1 0.16,-0.13 c 1.55,0.43 15.24,4.06 24.41,1.43 a 1.23,1.23 0 0 1 1.42,0.67 50.3,50.3 0 0 1 3.64,8.61 c 0.76,3.15 0.16,4.82 0.11,4.93 v 0 c -0.53,0.74 -1.52,1.46 -4.12,3.14 -6.53,4.23 -5.87,9.56 0.11,15.67 a 0.41,0.41 0 0 0 0.67,-0.42 21.88,21.88 0 0 1 -0.79,-3.65 0.13,0.13 0 0 1 0.16,-0.13 2.92,2.92 0 0 0 2,-0.35 0.13,0.13 0 0 1 0.18,0.11 c 0.1,0.79 0.8,4 5.36,6.13 a 0.3,0.3 0 0 0 0.39,-0.39 19.71,19.71 0 0 1 -1,-3.29 0.13,0.13 0 0 1 0.14,-0.15 c 1,0 4.69,0 5.52,-4.87 a 0.12,0.12 0 0 1 0.16,-0.1 c 0.88,0.32 5.83,1.93 8.83,-2 a 0.25,0.25 0 0 0 -0.23,-0.4 6.4,6.4 0 0 1 -2.89,0.19 0.13,0.13 0 0 1 -0.05,-0.2 c 0.47,-0.82 2.75,-5.45 -2.88,-10.45 a 0.16,0.16 0 0 1 0,-0.16 c 3.67,-11.44 2.94,-24 -1.21,-31.52 a 1.34,1.34 0 0 0 -1.63,-0.66 c -7.1,2.56 -18.74,3.64 -20.16,-2.73 a 0.15,0.15 0 0 1 0.15,-0.18 39.22,39.22 0 0 0 9.92,0.4 59,59 0 0 0 11.18,-2 c 4.16,-1.29 7.56,-2.91 9.2,-7.2 a 15.76,15.76 0 0 0 -2.33,-13.68 0.13,0.13 0 0 1 0,-0.19 z M 483.47,18.08 a 20.16,20.16 0 0 0 6.92,2.57 c 0,0 -0.8,6.52 -0.91,6.46 -0.33,-0.2 -0.66,-0.37 -1,-0.55 a 26.05,26.05 0 0 0 -2.72,-1.27 8.11,8.11 0 0 0 -1.6,-0.47 5.37,5.37 0 0 0 -1,-0.08 z m -1,-7.93 c 0.82,-3.45 4.22,-4.32 5.5,-4.66 A 13.17,13.17 0 0 1 496,5.9 c 2.36,0.86 6.07,0.22 8,-0.54 1.93,-0.76 3.48,-1.17 4.51,-0.8 a 9.59,9.59 0 0 0 3.31,0.59 17.88,17.88 0 0 0 3.87,-0.69 c 0,0 -2.43,2 -4,2 -2.42,-0.09 -4.12,2.42 -4.82,3.71 -0.7,1.29 -2,2.07 -4.9,2.15 -3.83,0.1 -4,3.12 -4.37,4.4 -0.37,1.28 -1.6,2 -4.32,1.66 A 19.36,19.36 0 0 1 485.53,16 c -2.51,-1.26 -3.65,-3.55 -3.1,-5.87 m -4.69,22.71 c 0.57,-1.84 2.84,-1.32 4.12,-1 a 0.35,0.35 0 0 0 0.38,-0.51 3.25,3.25 0 0 1 -0.18,-2.93 c 0.93,-1.43 3.7,0.07 5,0.7 1.3,0.63 4.21,2.17 3.55,3.86 a 2.29,2.29 0 0 1 -2,1.45 0.37,0.37 0 0 0 -0.2,0.61 c 0.71,0.8 1.83,2.25 1.35,3.46 -0.48,1.21 -2.37,1.09 -3.53,1 a 0.37,0.37 0 0 0 -0.29,0.62 c 0.68,0.76 1.56,2.05 1.2,3.35 -0.54,2 -3.62,0.56 -5.24,-0.15 -1.62,-0.71 -3.59,-2.05 -3.3,-3.51 0.19,-0.94 1.38,-1.53 2.2,-1.83 a 0.37,0.37 0 0 0 0.07,-0.65 c -1.24,-0.81 -3.66,-2.66 -3.1,-4.43 m 4,41.72 c -0.58,0 -0.49,-4.34 -0.28,-11 0.23,-7.14 0.71,-15.45 0.77,-17.2 a 18.89,18.89 0 0 0 2.27,0.74 6.35,6.35 0 0 0 1.69,0.18 1.31,1.31 0 0 0 0.33,0 c -0.35,1.9 -0.68,4.5 -1.13,7.53 -0.33,2.23 -0.86,5.65 -1.35,9 -0.8,5.48 -1.81,10.76 -2.3,10.74 m 32.93,-5.53 a 19.55,19.55 0 0 1 -2.51,-4.73 c -0.19,-0.55 -0.45,-1.48 -0.65,-2.28 a 0.39,0.39 0 0 0 -0.65,-0.2 11.5,11.5 0 0 0 -2.29,3.07 1.59,1.59 0 0 0 -0.09,0.2 19,19 0 0 0 -1.68,4.26 30.74,30.74 0 0 1 -3.91,-3.92 c 0,-0.21 0.05,-0.43 0.09,-0.65 0.06,-0.4 0.13,-0.81 0.22,-1.21 a 23.69,23.69 0 0 1 0.64,-2.44 v 0 a 0.49,0.49 0 0 0 -0.11,-0.5 0.45,0.45 0 0 0 -0.64,0 15.64,15.64 0 0 0 -1.64,2.13 c -0.11,0.17 -0.21,0.36 -0.31,0.54 -0.72,-0.92 -1.44,-1.88 -2.15,-2.86 0,-0.17 0,-0.34 0.06,-0.51 0,-0.38 0.1,-0.75 0.17,-1.12 0.14,-0.75 0.34,-1.51 0.56,-2.29 v 0 a 0.5,0.5 0 0 0 -0.11,-0.48 0.43,0.43 0 0 0 -0.64,0 14.34,14.34 0 0 0 -1.56,2 l -0.09,0.16 c -3.92,-5.75 -7.23,-11.58 -8.17,-13.27 l 0.15,-0.48 a 3.69,3.69 0 0 0 -0.08,-2.17 2,2 0 0 0 -0.09,-0.22 2.76,2.76 0 0 0 0.67,-0.14 3.3,3.3 0 0 0 1.5,-1.11 4.26,4.26 0 0 0 0.74,-1.63 4.05,4.05 0 0 0 0,-1.9 3.48,3.48 0 0 0 -0.68,-1.42 3.48,3.48 0 0 0 1.25,-1.45 3.33,3.33 0 0 0 0.21,-0.48 c 0,-0.15 0.11,-0.31 0.16,-0.5 a 4.28,4.28 0 0 1 1.24,1.54 c 1,2.06 -0.17,5.44 -0.32,6.72 a 6.73,6.73 0 0 0 1.34,4.28 c 0.87,1.19 8.52,5.63 15.65,8.61 l 1.06,0.46 c 1.63,-5.6 6,-10.25 9.2,-13.74 0.73,-0.8 1.42,-1.56 2,-2.26 l 0.74,-0.91 -1,-1 a 5.24,5.24 0 0 0 -3.84,-1.9 18.92,18.92 0 0 0 -4.63,1.21 c -1.47,-1.61 0.8,-3.6 1.84,-4.58 1.26,0 3,-0.14 3.73,-0.19 l 1.13,-0.06 a 0.63,0.63 0 0 0 0.49,-1 15.63,15.63 0 0 0 -1.37,-2.24 c -0.74,-0.9 -2.53,-0.12 -5.43,-0.45 -4.16,-0.47 -5.84,-7.48 -5.84,-7.48 A 8.12,8.12 0 0 0 514,19.29 c 1.79,-1.12 2.64,-3.68 4.79,-5.18 2.15,-1.5 7,-1.94 10.6,-2.19 3.39,-0.23 4.2,-2.5 5,-4.15 a 0.34,0.34 0 0 1 0.48,-0.15 c 4.25,2.75 3.61,6.45 2.48,8 a 13.64,13.64 0 0 1 -0.94,1.2 0.25,0.25 0 0 0 0.07,0.38 2.88,2.88 0 0 1 1.47,2 7.69,7.69 0 0 1 -0.27,5.54 6.91,6.91 0 0 1 -4.08,3.07 c -0.24,0.1 -0.58,0.24 -1,0.41 a 1.13,1.13 0 0 0 0.33,2.14 v 0 a 6.08,6.08 0 0 0 1,0 v 0 a 15.13,15.13 0 0 0 8.22,-2.15 44,44 0 0 1 4.62,12.53 13,13 0 0 0 -1.34,-1.14 14.62,14.62 0 0 0 -3.2,-1.78 14.92,14.92 0 0 0 -3.42,-0.91 0.72,0.72 0 0 0 -0.77,0.46 0.79,0.79 0 0 0 0.39,1 v 0 a 25.56,25.56 0 0 1 2.91,1.47 16.49,16.49 0 0 1 2.66,1.92 13.6,13.6 0 0 1 2.1,2.32 13.22,13.22 0 0 1 0.87,1.33 l 0.36,0.72 v 0.06 a 24.34,24.34 0 0 1 -1.59,9.07 c 0,0.15 -0.12,0.3 -0.19,0.46 -0.09,-0.3 -0.19,-0.6 -0.3,-0.89 a 16.69,16.69 0 0 0 -2.13,-4 12.3,12.3 0 0 0 -3.29,-3.11 11.62,11.62 0 0 0 -4,-1.6 0.73,0.73 0 0 0 -0.8,0.46 0.8,0.8 0 0 0 0.39,1 v 0 a 13.62,13.62 0 0 1 3.27,2 11.64,11.64 0 0 1 2.46,2.82 16,16 0 0 1 1.63,3.5 16.85,16.85 0 0 1 0.56,1.91 c 0.08,0.32 0.17,0.65 0.23,1 a 1.1,1.1 0 0 0 0.16,0.37 41.8,41.8 0 0 1 -4.86,6 l -0.12,-0.77 C 538.69,64 538.61,63.6 538.52,63.19 a 18.6,18.6 0 0 0 -1.71,-4.69 13.63,13.63 0 0 0 -3.08,-3.89 13,13 0 0 0 -4.1,-2.4 0.72,0.72 0 0 0 -0.86,0.35 0.8,0.8 0 0 0 0.26,1 v 0 a 15.3,15.3 0 0 1 3.3,2.65 13.23,13.23 0 0 1 2.29,3.47 18.11,18.11 0 0 1 1.28,4.08 10.18,10.18 0 0 1 0.19,1.08 c 0.06,0.36 0.12,0.73 0.15,1.1 0.03,0.37 0.08,0.73 0.1,1.1 a 1.11,1.11 0 0 0 0.12,0.43 48.66,48.66 0 0 1 -5.1,4.07 1.32,1.32 0 0 1 -0.25,-0.16 c -0.31,-0.18 -0.59,-0.4 -0.88,-0.59 -0.29,-0.19 -0.58,-0.41 -0.86,-0.63 -0.28,-0.22 -0.56,-0.43 -0.82,-0.66 a 16.78,16.78 0 0 1 -2.89,-3 12.45,12.45 0 0 1 -1.91,-3.69 13.79,13.79 0 0 1 -0.62,-4.29 v 0 a 0.76,0.76 0 0 0 -0.58,-0.74 0.72,0.72 0 0 0 -0.86,0.59 14.09,14.09 0 0 0 -0.06,5 13.91,13.91 0 0 0 1.79,4.77 19,19 0 0 0 3.1,3.87 c 0.29,0.29 0.59,0.55 0.89,0.82 0.3,0.27 0.55,0.47 0.82,0.69 a 32.63,32.63 0 0 1 -6.41,2.83 l -0.32,-0.26 c -0.83,-0.66 -1.6,-1.32 -2.33,-2 a 30.72,30.72 0 0 1 -4.52,-5 m 71.16,19 a 35.26,35.26 0 0 1 -3.94,7.5 v 0 a 9.68,9.68 0 0 0 -1.39,-1.8 12.55,12.55 0 0 0 -3.43,-2.51 0.66,0.66 0 0 0 -0.83,0.21 0.76,0.76 0 0 0 0.12,1 v 0 a 13.06,13.06 0 0 1 1.3,1.28 10.74,10.74 0 0 1 1.08,1.48 7.72,7.72 0 0 1 0.74,1.57 6.31,6.31 0 0 1 0.3,1.56 c -0.91,1.15 -1.87,2.24 -2.83,3.27 -0.07,-0.13 -0.13,-0.27 -0.2,-0.39 a 10,10 0 0 0 -1.33,-1.88 13,13 0 0 0 -1.58,-1.49 12.16,12.16 0 0 0 -1.78,-1.17 0.65,0.65 0 0 0 -0.82,0.17 0.74,0.74 0 0 0 0.06,1 v 0 a 12.4,12.4 0 0 1 1.22,1.37 11.07,11.07 0 0 1 1,1.54 7.49,7.49 0 0 1 0.62,1.62 5.74,5.74 0 0 1 0.18,1.57 v 0 0.19 c -1.54,1.47 -3.06,2.78 -4.43,3.9 a 0.13,0.13 0 0 0 0,0.15 c 1.92,5.27 -1.35,10.18 -3,5.42 -0.38,-1.08 -0.74,-0.9 -1.45,-0.34 -0.71,0.56 -6.69,4.68 -7.41,5.18 a 0.13,0.13 0 0 0 -0.06,0.14 c 0.71,4 -3.19,7.52 -5.81,7.27 -2.17,-0.21 -3.29,-2.84 -2.75,-6.31 a 0.49,0.49 0 0 0 -0.78,-0.49 c -2.29,1.95 -6.53,4.39 -9.23,0.5 -1.27,-1.84 1.18,-4.86 2.55,-6.3 a 0.57,0.57 0 0 0 -0.31,-0.95 c -2.09,-0.3 -6.17,-1.18 -4.52,-3.27 1.53,-1.94 4.45,-1.64 6.61,-1.47 a 17,17 0 0 1 11.71,5.62 0.12,0.12 0 0 0 0.16,0 34.22,34.22 0 0 0 6.33,-4.79 c 1.94,-2.22 4.8,-3.9 5,-14.28 0.09,-4.92 -4.29,-8.93 -6.9,-12.8 C 557.4,77.49 556,74.31 557.81,68 a 0.14,0.14 0 0 1 0.12,-0.11 c 0.33,0 1.66,-0.05 5.8,-0.12 a 0.12,0.12 0 0 1 0.1,0 34,34 0 0 0 11.94,8.8 0.14,0.14 0 0 1 0.09,0.14 c -0.12,1.15 -0.85,11.26 10,11.26 m 11.79,-24.76 c 4.16,2.69 12,2.33 19.48,0.06 a 0.13,0.13 0 0 1 0.16,0.07 33.11,33.11 0 0 1 2.26,7.43 17.4,17.4 0 0 0 -2.22,-1.07 14.81,14.81 0 0 0 -2.4,-0.75 13.81,13.81 0 0 0 -2.47,-0.32 0.46,0.46 0 0 0 -0.45,0.34 0.49,0.49 0 0 0 0.3,0.59 v 0 a 13.28,13.28 0 0 1 2.15,0.83 13.53,13.53 0 0 1 2,1.13 17.56,17.56 0 0 1 1.85,1.48 c 0.58,0.49 1.14,1.08 1.68,1.47 v 0 a 39.16,39.16 0 0 1 0.1,4.48 c -0.2,-0.13 -0.41,-0.24 -0.61,-0.36 a 20.11,20.11 0 0 0 -2.29,-1.11 15.87,15.87 0 0 0 -2.4,-0.75 12.94,12.94 0 0 0 -2.47,-0.31 0.44,0.44 0 0 0 -0.45,0.33 0.49,0.49 0 0 0 0.3,0.59 v 0 a 15.79,15.79 0 0 1 4.15,2 19.09,19.09 0 0 1 1.84,1.37 c 0.56,0.48 1.11,1 1.64,1.44 a 49.23,49.23 0 0 1 -2.33,10.21 v 0 l -0.38,0.89 c 4.7,2.51 5.81,9 2.19,9.67 a 3.85,3.85 0 0 1 -2.93,-0.61 0.42,0.42 0 0 0 -0.69,0.25 c -0.39,1.86 -1.67,5.51 -4.26,5.51 -2.15,0 -2.81,-1.67 -2.85,-3.26 a 0.5,0.5 0 0 0 -0.89,-0.34 c -1.31,1.63 -2.62,2.24 -3.72,1.5 a 2.83,2.83 0 0 1 -1.12,-3.59 c 1.56,-3.3 6.24,-4.54 8.12,-7 0,0 0,0 0,0 2.31,-4.1 -1.5,-12.41 -4.29,-18.33 a 1.34,1.34 0 0 0 -1.6,-0.75 39.17,39.17 0 0 1 -17.86,0.72 C 575.91,74.83 569.73,70.64 565.96,65.83 a 0.27,0.27 0 0 1 -0.07,-0.08 c -0.25,-0.32 -0.48,-0.64 -0.71,-1 v 0 c -1,-1.45 -1.64,-2.52 -2.23,-3.37 a 0.71,0.71 0 0 0 -0.45,-0.31 c -1.12,-0.2 -0.45,2.85 -0.34,3.73 a 0.13,0.13 0 0 1 -0.1,0.16 c -2.27,0.47 -4.92,0.11 -7.86,0.24 a 0.17,0.17 0 0 0 -0.1,0.06 c -4.28,5.38 -5.74,9.18 -17.94,11.4 -1.7,0.31 -1.57,1.41 -0.83,2 a 7,7 0 0 1 2,4.18 c 0.12,0.9 -0.62,2.06 -4.41,4.67 -0.09,-0.23 -0.18,-0.45 -0.29,-0.67 a 9.1,9.1 0 0 0 -1.29,-1.94 10.31,10.31 0 0 0 -1.61,-1.5 9.31,9.31 0 0 0 -1.87,-1.08 0.67,0.67 0 0 0 -0.81,0.24 0.76,0.76 0 0 0 0.15,1 h 0.06 a 9.26,9.26 0 0 1 1.27,1.24 8.18,8.18 0 0 1 1,1.47 6.34,6.34 0 0 1 0.58,1.59 5.56,5.56 0 0 1 0.15,1.34 44.15,44.15 0 0 1 -4.54,2.52 9.39,9.39 0 0 0 -0.35,-1.06 9,9 0 0 0 -1.13,-2 10.13,10.13 0 0 0 -1.54,-1.66 9.75,9.75 0 0 0 -1.78,-1.24 0.67,0.67 0 0 0 -0.82,0.17 0.77,0.77 0 0 0 0.06,1 h 0.06 a 9,9 0 0 1 1.17,1.34 7.89,7.89 0 0 1 0.86,1.55 6.24,6.24 0 0 1 0.46,1.63 5.72,5.72 0 0 1 0,1.43 c -5.63,2 -9.06,1.09 -10.89,0 v 0 a 10.32,10.32 0 0 0 -1.28,-0.86 1,1 0 0 0 -1.35,0.35 1.17,1.17 0 0 0 0,1.34 14.52,14.52 0 0 1 0.82,1.23 3.36,3.36 0 0 1 0.49,1.72 c 0,1.93 -1.73,2.55 -3.8,2.55 -2.07,0 -3.7,-0.62 -3.7,-2.55 v -1 a 0.82,0.82 0 0 0 -0.94,-0.86 1.51,1.51 0 0 0 -1,0.74 l -0.64,1.12 v 0 c -0.09,0.22 -3.43,7.66 -6.84,6 -2.25,-1.12 -1.24,-3.82 0,-5.84 a 0.67,0.67 0 0 0 -0.78,-1 3.88,3.88 0 0 1 -3.33,0 c -2.11,-1.17 -2.8,-3.53 -2.06,-5 a 12.21,12.21 0 0 1 3.11,-4 0.74,0.74 0 0 0 0,-1.07 c -0.75,-0.77 -1.15,-1.41 -0.73,-2.3 0.52,-1.1 1.62,-1.54 3.74,-1.15 2.39,0.42 3.72,3.09 4.45,6 a 1.91,1.91 0 0 0 2.28,1.46 v 0 c 8.22,-2 14.27,-7.89 19.13,-11.92 l 0.44,0.37 1.32,1.09 0.62,-0.18 c 12.17,-3.38 23.54,-15.58 26.33,-22.83 a 27.58,27.58 0 0 0 1.69,-7.21 c 17,-0.5 16.73,-1 24.32,-2.31 5.89,-1.05 13.78,2.43 17.65,6.34 2.8,2.82 2.69,8.19 5.75,10.17 m 28.59,-19 c -0.3,4.38 -2.41,7.32 -7.1,8.65 -4.69,1.33 -13.32,3.39 -22.34,1.86 -0.62,-0.1 -1.36,-2.13 -1.6,-2.82 a 0.13,0.13 0 0 1 0.15,-0.18 c 8.15,1.42 20.3,0.09 24,-2.28 4.94,-3.12 3.3,-11.8 -3.24,-14.33 -9.57,-3.7 -30,1.25 -43.93,1.45 -5.11,0.07 -10.59,0 -16.64,-5.35 -3.85,-3.75 -4.15,-10.11 -1.52,-14.52 v 0 c 2.63,-3.86 7.43,-5.36 11.75,-5 11.39,0.88 14.68,-6.65 24.43,-8.7 9.43,-2 13.69,0.76 14.88,1.76 a 0.14,0.14 0 0 1 -0.11,0.25 28,28 0 0 0 -14.88,2.06 32.26,32.26 0 0 0 -7.3,4.69 0.15,0.15 0 0 0 0.06,0.25 c 4.9,1.24 5.46,2.29 10.86,2.73 12.84,1.05 15.86,-4.51 22.49,-3.13 a 12.6,12.6 0 0 1 8,5 0.14,0.14 0 0 1 -0.15,0.21 c -19.77,-4.74 -17.79,3.91 -28.36,4.69 -6.41,0.48 -15.74,-5 -18.4,-4.6 a 0.14,0.14 0 0 0 -0.11,0.13 c -0.1,1 -1,8.57 -7.12,6.92 a 0.14,0.14 0 0 1 0,-0.25 c 2.34,-2.24 1.43,-5.61 -1.93,-6.62 a 11.33,11.33 0 0 0 -7,0.4 c -3.68,1.46 -5.12,6.65 -2.9,9.88 3.33,4.86 8.45,6 15.8,5.54 7.64,-0.5 12.62,-1.08 23.26,-2.54 3.14,-0.43 9.18,-1.07 15,-1.28 -0.36,0.62 -0.71,1.24 -1,1.88 a 0.49,0.49 0 0 0 0,0.47 0.43,0.43 0 0 0 0.62,0.17 v 0 c 0.62,-0.39 1.22,-0.79 1.81,-1.19 l 0.87,-0.62 a 2.37,2.37 0 0 0 0.78,-0.7 V 29.1 c 1.17,0 2.3,0 3.37,0.05 l -0.13,0.18 a 15.93,15.93 0 0 0 -1.29,2.28 0.53,0.53 0 0 0 0.05,0.5 0.44,0.44 0 0 0 0.64,0.09 v 0 c 0.62,-0.5 1.26,-1 1.92,-1.4 l 1,-0.66 a 3.48,3.48 0 0 0 0.9,-0.74 8.77,8.77 0 0 1 4.12,1.25 l -4.16,3.49 c -0.43,0.33 4.87,4.07 4.45,10.19"
         id="path3715" />
    </g>
  </g>
</svg>
